# xmcd
#
# Track frame offsets:
#	150
#	19747
#	37527
#	57602
#	73382
#	90957
#	108222
#	125060
#	136715
#	157652
#	173977
#
# Disc length: 2558 seconds
#
# Revision: 0
# Processed by: cddbd v1.4PL0 Copyright (c) Steve Scherf et al.
# Submitted via: AudioConverter v4.2 Copyright (c) Dennis Rebentrost
#
DISCID=8509fc0b
DTITLE=Molton Mike - Molton Mike The Movie
DYEAR=2000
DGENRE=Blues
TTITLE0=Theme to an Imaginary Movie
TTITLE1=Viva Le Tour
TTITLE2=Alligator Tennis Shoes
TTITLE3=Just Thinking of You
TTITLE4=Candle Lit Room
TTITLE5=Love for Jane
TTITLE6=You Know What I'm Here For
TTITLE7=Clearwater Sunset
TTITLE8=Back of My Mind
TTITLE9=Worst Blue I Ever Had
TTITLE10=The Final Scene (The Credits Roll)
EXTD=
EXTT0=
EXTT1=
EXTT2=
EXTT3=
EXTT4=
EXTT5=
EXTT6=
EXTT7=
EXTT8=
EXTT9=
EXTT10=
PLAYORDER=
